<?xml version="1.0" encoding="UTF-8"?><svg id="_レイヤー_2" xmlns="http://www.w3.org/2000/svg" viewBox="0 0 446.89 446.89"><defs><style>.cls-1{stroke-linecap:round;stroke-linejoin:round;}.cls-1,.cls-2{stroke:#040000;stroke-width:25px;}.cls-1,.cls-2,.cls-3,.cls-4{fill:none;}.cls-2{stroke-miterlimit:8;}.cls-3{fill-rule:evenodd;}</style></defs><g id="_レイヤー_1-2"><rect class="cls-4" x="0" width="446.89" height="446.89"/><line class="cls-1" x1="137.8" y1="358.44" x2="137.8" y2="388.76"/><line class="cls-1" x1="226.37" y1="335.91" x2="226.37" y2="388.75"/><line class="cls-1" x1="314.81" y1="311.83" x2="314.81" y2="393.65"/><path class="cls-1" d="m68.49,403.5c-13.92,0-25.21-11.29-25.21-25.21"/><line class="cls-1" x1="68.43" y1="403.5" x2="403.5" y2="403.5"/><line class="cls-1" x1="43.28" y1="378.34" x2="43.28" y2="43.4"/><polygon class="cls-3" points="30.88 415.89 416.01 415.89 416.01 31 30.88 31 30.88 415.89 30.88 415.89"/><polygon class="cls-3" points="30.88 415.89 416.01 415.89 416.01 31 30.88 31 30.88 415.89 30.88 415.89"/><polygon class="cls-3" points="30.88 415.89 416.01 415.89 416.01 31 30.88 31 30.88 415.89 30.88 415.89"/><polygon class="cls-3" points="30.88 415.89 416.01 415.89 416.01 31 30.88 31 30.88 415.89 30.88 415.89"/><polygon class="cls-3" points="30.88 415.89 416.01 415.89 416.01 31 30.88 31 30.88 415.89 30.88 415.89"/><polygon class="cls-3" points="30.88 415.89 416.01 415.89 416.01 31 30.88 31 30.88 415.89 30.88 415.89"/><polygon class="cls-3" points="30.88 415.89 416.01 415.89 416.01 31 30.88 31 30.88 415.89 30.88 415.89"/><polygon class="cls-3" points="30.88 415.89 416.01 415.89 416.01 31 30.88 31 30.88 415.89 30.88 415.89"/><polygon class="cls-3" points="30.88 415.89 416.01 415.89 416.01 31 30.88 31 30.88 415.89 30.88 415.89"/><polygon class="cls-3" points="30.88 415.89 416.01 415.89 416.01 31 30.88 31 30.88 415.89 30.88 415.89"/><line class="cls-1" x1="157.75" y1="190.08" x2="105.28" y2="99.21"/><line class="cls-1" x1="314.18" y1="190.08" x2="366.65" y2="99.21"/><path class="cls-2" d="m148.08,224.94c0-17.05,13.82-30.87,30.87-30.87s30.87,13.82,30.87,30.87-13.82,30.87-30.87,30.87-30.87-13.82-30.87-30.87h0Z"/><path class="cls-2" d="m262.1,224.94c0-17.05,13.82-30.87,30.87-30.87s30.87,13.82,30.87,30.87-13.82,30.87-30.87,30.87-30.87-13.82-30.87-30.87h0Z"/><line class="cls-1" x1="214.64" y1="224.94" x2="259.48" y2="224.94"/></g></svg>