<svg xmlns="http://www.w3.org/2000/svg" width="36" height="36" viewBox="0 0 36 36" fill="none">
  <path d="M6.01217 5.86809C6.30017 5.86809 6.55217 5.61609 6.55217 5.32809C6.55217 5.04009 6.30017 4.78809 6.01217 4.78809C5.72417 4.78809 5.47217 5.04009 5.47217 5.32809C5.47217 5.65209 5.68817 5.86809 6.01217 5.86809Z" fill="black"/>
  <path d="M12.852 5.86809C13.14 5.86809 13.392 5.61609 13.392 5.32809C13.392 5.04009 13.14 4.78809 12.852 4.78809C12.564 4.78809 12.312 5.04009 12.312 5.32809C12.312 5.65209 12.564 5.86809 12.852 5.86809Z" fill="black"/>
  <path d="M9.43209 5.86809C9.72009 5.86809 9.97209 5.61609 9.97209 5.32809C9.97209 5.04009 9.72009 4.78809 9.43209 4.78809C9.14409 4.78809 8.89209 5.04009 8.89209 5.32809C8.89209 5.65209 9.14409 5.86809 9.43209 5.86809Z" fill="black"/>
  <path d="M18.9721 5.86809H27.4681C27.7561 5.86809 28.0081 5.61609 28.0081 5.32809C28.0081 5.04009 27.7561 4.78809 27.4681 4.78809H18.9721C18.6841 4.78809 18.4321 5.04009 18.4321 5.32809C18.4321 5.61609 18.6841 5.86809 18.9721 5.86809Z" fill="black"/>
  <path d="M10.9441 12.8876H27.5041C27.7921 12.8876 28.0441 12.6356 28.0441 12.3476C28.0441 12.0596 27.7921 11.8076 27.5041 11.8076H10.9441C10.6561 11.8076 10.4041 12.0596 10.4041 12.3476C10.4041 12.6356 10.6201 12.8876 10.9441 12.8876Z" fill="black"/>
  <path d="M7.74004 11.8076H5.97604C5.68804 11.8076 5.43604 12.0596 5.43604 12.3476C5.43604 12.6356 5.68804 12.8876 5.97604 12.8876H7.74004C8.02804 12.8876 8.28004 12.6356 8.28004 12.3476C8.28004 12.0596 8.06404 11.8076 7.74004 11.8076Z" fill="black"/>
  <path d="M9.18014 15.7314H10.9441C11.2321 15.7314 11.4841 15.4794 11.4841 15.1914C11.4841 14.9034 11.2321 14.6514 10.9441 14.6514H9.18014C8.89214 14.6514 8.64014 14.9034 8.64014 15.1914C8.64014 15.4794 8.89214 15.7314 9.18014 15.7314Z" fill="black"/>
  <path d="M18.324 14.6514H14.112C13.824 14.6514 13.572 14.9034 13.572 15.1914C13.572 15.4794 13.824 15.7314 14.112 15.7314H18.324C18.612 15.7314 18.864 15.4794 18.864 15.1914C18.864 14.9034 18.612 14.6514 18.324 14.6514Z" fill="black"/>
  <path d="M14.5081 17.5322H9.18014C8.89214 17.5322 8.64014 17.7842 8.64014 18.0722C8.64014 18.3602 8.89214 18.6122 9.18014 18.6122H14.5081C14.7961 18.6122 15.0481 18.3602 15.0481 18.0722C15.0481 17.7842 14.7961 17.5322 14.5081 17.5322Z" fill="black"/>
  <path d="M13.8602 20.376H10.9082C10.6202 20.376 10.3682 20.628 10.3682 20.916C10.3682 21.204 10.6202 21.456 10.9082 21.456H13.8602C14.1482 21.456 14.4002 21.204 14.4002 20.916C14.4002 20.628 14.1482 20.376 13.8602 20.376Z" fill="black"/>
  <path d="M7.74004 20.376H5.97604C5.68804 20.376 5.43604 20.628 5.43604 20.916C5.43604 21.204 5.68804 21.456 5.97604 21.456H7.74004C8.02804 21.456 8.28004 21.204 8.28004 20.916C8.28004 20.628 8.06404 20.376 7.74004 20.376Z" fill="black"/>
  <path d="M13.8601 23.2559H9.18014C8.89214 23.2559 8.64014 23.5079 8.64014 23.7959C8.64014 24.0839 8.89214 24.3359 9.18014 24.3359H13.8601C14.1481 24.3359 14.4001 24.0839 14.4001 23.7959C14.4001 23.5079 14.1481 23.2559 13.8601 23.2559Z" fill="black"/>
  <path d="M13.8601 26.0996H9.18014C8.89214 26.0996 8.64014 26.3516 8.64014 26.6396C8.64014 26.9276 8.89214 27.1796 9.18014 27.1796H13.8601C14.1481 27.1796 14.4001 26.9276 14.4001 26.6396C14.4001 26.3516 14.1481 26.0996 13.8601 26.0996Z" fill="black"/>
  <path d="M33.66 22.8958H32.508C32.328 22.3198 32.112 21.7798 31.824 21.2758L32.652 20.4478C32.868 20.2318 32.868 19.9078 32.652 19.6918L31.68 18.7198V3.7078C31.68 2.6638 30.816 1.7998 29.772 1.7998H3.70805C2.66405 1.7998 1.80005 2.6638 1.80005 3.7078V28.6198C1.80005 29.6638 2.66405 30.5278 3.70805 30.5278H17.604L19.692 32.6158C19.908 32.8318 20.232 32.8318 20.448 32.6158L21.276 31.7878C21.78 32.0758 22.32 32.2918 22.896 32.4718V33.6238C22.896 33.9118 23.148 34.1638 23.436 34.1638H26.64C26.928 34.1638 27.18 33.9118 27.18 33.6238V32.4718C27.756 32.2918 28.296 32.0758 28.8 31.7878L29.628 32.6158C29.736 32.7238 29.88 32.7598 30.024 32.7598C30.168 32.7598 30.312 32.6878 30.42 32.6158L32.688 30.3478C32.796 30.2398 32.832 30.0958 32.832 29.9518C32.832 29.8078 32.76 29.6638 32.688 29.5558L31.824 28.7998C32.112 28.2958 32.328 27.7558 32.508 27.1798H33.66C33.948 27.1798 34.2 26.9278 34.2 26.6398V23.4358C34.2 23.1478 33.948 22.8958 33.66 22.8958ZM3.70805 2.8798H29.772C30.24 2.8798 30.6 3.2398 30.6 3.7078V7.81181H2.88005V3.7078C2.88005 3.2398 3.24005 2.8798 3.70805 2.8798ZM17.604 29.4478H3.70805C3.24005 29.4478 2.88005 29.0878 2.88005 28.6198V8.89181H30.6V17.6398L30.384 17.4238C30.276 17.3158 30.132 17.2798 29.988 17.2798C29.844 17.2798 29.7 17.3518 29.592 17.4238L28.8 18.2518C28.296 17.9638 27.756 17.7478 27.18 17.5678V16.4158C27.18 16.1278 26.928 15.8758 26.64 15.8758H23.436C23.148 15.8758 22.896 16.1278 22.896 16.4158V17.5678C22.32 17.7478 21.78 17.9638 21.276 18.2518L20.448 17.4238C20.232 17.2078 19.872 17.2078 19.692 17.4238L17.424 19.6918C17.208 19.9078 17.208 20.2318 17.424 20.4478L18.252 21.2758C17.964 21.7798 17.748 22.3198 17.568 22.8958H16.416C16.128 22.8958 15.876 23.1478 15.876 23.4358V26.6398C15.876 26.9278 16.128 27.1798 16.416 27.1798H17.568C17.748 27.7558 17.964 28.2958 18.252 28.7998L17.604 29.4478ZM33.12 26.0998H32.076C31.824 26.0998 31.608 26.2798 31.536 26.5318C31.356 27.2878 31.068 27.9718 30.672 28.6198C30.528 28.8358 30.564 29.1238 30.744 29.3038L31.464 30.0238L29.952 31.5358L29.232 30.8158C29.052 30.6358 28.764 30.5998 28.548 30.7438C27.9 31.1398 27.216 31.4278 26.46 31.6078C26.208 31.6798 26.028 31.8958 26.028 32.1478V33.1198H23.904V32.0758C23.904 31.8238 23.724 31.6078 23.472 31.5358C22.716 31.3558 22.032 31.0678 21.384 30.6718C21.168 30.5278 20.88 30.5638 20.7 30.7438L19.98 31.4638L18.468 29.9518L19.188 29.2318C19.368 29.0518 19.404 28.7638 19.26 28.5478C18.864 27.8998 18.576 27.2158 18.396 26.4598C18.324 26.2078 18.108 26.0278 17.856 26.0278H16.812V23.9038H18C18.252 23.9038 18.468 23.7238 18.54 23.4718C18.72 22.7158 19.008 22.0318 19.404 21.3838C19.548 21.1678 19.512 20.8798 19.332 20.6998L18.612 19.9798L20.124 18.4678L20.844 19.1878C21.024 19.3678 21.312 19.4038 21.528 19.2598C22.176 18.8638 22.86 18.5758 23.616 18.3958C23.868 18.3238 24.048 18.1078 24.048 17.8558V16.8118H26.172V17.9998C26.172 18.2518 26.352 18.4678 26.604 18.5398C27.36 18.7198 28.044 19.0078 28.692 19.4038C28.908 19.5478 29.196 19.5118 29.376 19.3318L30.096 18.6118L31.608 20.1238L30.888 20.8438C30.708 21.0238 30.672 21.3118 30.816 21.5278C31.212 22.1758 31.5 22.8598 31.68 23.6158C31.752 23.8678 31.968 24.0478 32.22 24.0478H33.12V26.0998Z" fill="black"/>
  <path d="M24.084 21.9597C24.012 21.7797 23.796 21.6357 23.58 21.6357C23.364 21.6357 23.184 21.7797 23.076 21.9597L20.7 27.4677C20.592 27.7557 20.7 28.0437 20.988 28.1877C21.276 28.2957 21.564 28.1877 21.708 27.8997L22.212 26.7117H24.948L25.452 27.8997C25.524 28.1157 25.74 28.2237 25.956 28.2237C26.028 28.2237 26.1 28.2237 26.172 28.1877C26.46 28.0797 26.568 27.7557 26.46 27.4677L24.084 21.9597ZM22.68 25.6317L23.58 23.5437L24.48 25.6317H22.68Z" fill="black"/>
  <path d="M28.656 21.6357C28.368 21.6357 28.116 21.8877 28.116 22.1757V27.7197C28.116 28.0077 28.368 28.2597 28.656 28.2597C28.944 28.2597 29.196 28.0077 29.196 27.7197V22.1757C29.196 21.8877 28.944 21.6357 28.656 21.6357Z" fill="black"/>
</svg>
